<svg id="collapse" xmlns="http://www.w3.org/2000/svg" viewBox="0 0 195 167"><defs><style>.cls-1{fill:#8a8884;}</style></defs><title>collapse</title><rect class="cls-1" y="68.27" width="195" height="31.79" rx="6.94"/><path class="cls-1" d="M105.15,59,138.21,21.4a3.25,3.25,0,0,0-2.44-5.4H63.67a3.25,3.25,0,0,0-2.44,5.4L94.28,59A7.23,7.23,0,0,0,105.15,59Z" transform="translate(-2.93 -16)"/><path class="cls-1" d="M94.94,139.29,61.23,177.6a3.25,3.25,0,0,0,2.44,5.4h72.1a3.25,3.25,0,0,0,2.44-5.4L104.5,139.29A6.37,6.37,0,0,0,94.94,139.29Z" transform="translate(-2.93 -16)"/></svg>