<svg id="expand" xmlns="http://www.w3.org/2000/svg" viewBox="0 0 195 193.74"><defs><style>.cls-1{fill:#8a8884;}</style></defs><title>expand</title><rect class="cls-1" width="195" height="31.79" rx="6.94"/><path class="cls-1" d="M95.17,50.81,63.73,84.06a3.25,3.25,0,0,0,2.36,5.48h68.67a3.25,3.25,0,0,0,2.36-5.48L105.69,50.81A7.24,7.24,0,0,0,95.17,50.81Z" transform="translate(-2.93 -3.5)"/><rect class="cls-1" x="2.93" y="165.45" width="195" height="31.79" rx="6.94" transform="translate(197.93 359.18) rotate(180)"/><path class="cls-1" d="M105.05,150.4l32.07-33.92a3.25,3.25,0,0,0-2.36-5.49H66.09a3.25,3.25,0,0,0-2.36,5.49L95.8,150.4A6.36,6.36,0,0,0,105.05,150.4Z" transform="translate(-2.93 -3.5)"/></svg>