<svg id="profile" xmlns="http://www.w3.org/2000/svg" viewBox="0 0 169.09 191.99"><defs><style>.cls-1{fill:#755b42;}.cls-2{fill:#6fa977;}.cls-3{fill:#e8b44d;}</style></defs><title>profile_dot_yellow</title><g id="profile_normal"><path class="cls-1" d="M95.69,5.85l-74,42.72a10.56,10.56,0,0,0-5.27,9.13v85.46a10.53,10.53,0,0,0,5.27,9.12l74,42.73a10.55,10.55,0,0,0,10.54,0l74-42.73a10.53,10.53,0,0,0,5.27-9.12V57.7a10.56,10.56,0,0,0-5.27-9.13l-74-42.72A10.55,10.55,0,0,0,95.69,5.85Z" transform="translate(-16.41 -4.44)"/></g><circle id="current" class="cls-2" cx="85.09" cy="95.06" r="59.5"/><circle id="current_favorite" class="cls-3" cx="85.09" cy="95.06" r="59.5"/></svg>