<svg xmlns="http://www.w3.org/2000/svg" viewBox="0 0 197 197"><defs><style>.a{fill:#a0a0a0;}</style></defs><title>refresh</title><path class="a" d="M196.07,12.64a8.05,8.05,0,0,0-11.54,0L167.85,29.19A99.34,99.34,0,0,0,136.43,9.12,96.79,96.79,0,0,0,100,2Q64.73,2,38.44,23.35T3.81,79.08V80A3.94,3.94,0,0,0,5,82.86a3.94,3.94,0,0,0,2.89,1.22H33.43a3.85,3.85,0,0,0,3.85-2.95q5.39-12.82,6.8-15A65.42,65.42,0,0,1,100,34.83,63.73,63.73,0,0,1,144.76,52.4l-17.7,17.7a8.21,8.21,0,0,0,5.77,14H190.3a8.32,8.32,0,0,0,8.21-8.21V18.41A7.87,7.87,0,0,0,196.07,12.64Z" transform="translate(-1.5 -2)"/><path class="a" d="M191.19,116.92H166.57a3.84,3.84,0,0,0-3.85,2.95q-5.38,12.83-6.8,15A65.41,65.41,0,0,1,100,166.17a64,64,0,0,1-24-4.61,66.21,66.21,0,0,1-20.65-13.09l17.57-17.57a8.21,8.21,0,0,0-5.77-14H9.71a7.89,7.89,0,0,0-5.77,2.44,7.89,7.89,0,0,0-2.44,5.77v57.46a7.89,7.89,0,0,0,2.44,5.77,7.91,7.91,0,0,0,5.77,2.44,7.9,7.9,0,0,0,5.77-2.44L32,171.81a97.94,97.94,0,0,0,31.23,20.14A96.05,96.05,0,0,0,99.49,199q35.14,0,61.31-21.35t34.38-55.73a2.2,2.2,0,0,0,.13-.9,4.16,4.16,0,0,0-4.11-4.1Z" transform="translate(-1.5 -2)"/></svg>